HIERARCHY
ROOT Hips
{
	OFFSET	0.00	0.00	0.00
	CHANNELS 6 Xposition Yposition Zposition Zrotation Xrotation Yrotation
	JOINT LeftUpLeg
	{
		OFFSET	 0.126116	-0.014019	-0.065224
		CHANNELS 3 Zrotation Xrotation Yrotation
		JOINT LeftLeg
		{
			OFFSET	 0.000000	 0.000000	 0.569914
			CHANNELS 3 Zrotation Xrotation Yrotation
			JOINT LeftFoot
			{
				OFFSET	 0.000000	 0.000000	 0.544423
				CHANNELS 3 Zrotation Xrotation Yrotation
				JOINT LeftToeBase
				{
					OFFSET	 0.000000	 0.000000	 0.207117
					CHANNELS 3 Zrotation Xrotation Yrotation
					End Site
					{
						OFFSET	 0.000000	 0.000000	 0.207117
					}
				}
			}
		}
	}
	JOINT RightUpLeg
	{
		OFFSET	-0.124023	-0.008373	-0.065224
		CHANNELS 3 Zrotation Xrotation Yrotation
		JOINT RightLeg
		{
			OFFSET	 0.000000	 0.000000	 0.570047
			CHANNELS 3 Zrotation Xrotation Yrotation
			JOINT RightFoot
			{
				OFFSET	 0.000000	 0.000000	 0.544354
				CHANNELS 3 Zrotation Xrotation Yrotation
				JOINT RightToeBase
				{
					OFFSET	 0.000000	 0.000000	 0.207540
					CHANNELS 3 Zrotation Xrotation Yrotation
					End Site
					{
						OFFSET	 0.000000	 0.000000	 0.207540
					}
				}
			}
		}
	}
	JOINT Spine
	{
		OFFSET	 0.000184	-0.007763	 0.117403
		CHANNELS 3 Zrotation Xrotation Yrotation
		JOINT Spine1
		{
			OFFSET	 0.000000	 0.000000	 0.137269
			CHANNELS 3 Zrotation Xrotation Yrotation
			JOINT Spine2
			{
				OFFSET	 0.000000	 0.000000	 0.156879
				CHANNELS 3 Zrotation Xrotation Yrotation
				JOINT LeftShoulder
				{
					OFFSET	 0.080501	-0.002496	 0.160144
					CHANNELS 3 Zrotation Xrotation Yrotation
					JOINT LeftArm
					{
						OFFSET	 0.000000	 0.000000	 0.164363
						CHANNELS 3 Zrotation Xrotation Yrotation
						JOINT LeftForeArm
						{
							OFFSET	 0.000000	 0.000000	 0.364576
							CHANNELS 3 Zrotation Xrotation Yrotation
							JOINT LeftHand
							{
								OFFSET	 0.000000	 0.000000	 0.360812
								CHANNELS 3 Zrotation Xrotation Yrotation
								JOINT LeftHandIndex1
								{
									OFFSET	 0.000000	 0.000000	 0.086006
									CHANNELS 3 Zrotation Xrotation Yrotation
									JOINT LeftHandIndex2
									{
										OFFSET	 0.000000	 0.000000	 0.047236
										CHANNELS 3 Zrotation Xrotation Yrotation
										JOINT LeftHandIndex3
										{
											OFFSET	-0.004284	-0.000551	 0.038166
											CHANNELS 3 Zrotation Xrotation Yrotation
											End Site
											{
												OFFSET	-0.004284	-0.000551	 0.038166
											}
										}
									}
								}
							}
						}
					}
				}
				JOINT Neck
				{
					OFFSET	 0.000000	 0.000000	 0.176489
					CHANNELS 3 Zrotation Xrotation Yrotation
					JOINT Head
					{
						OFFSET	 0.000000	-0.001747	 0.077940
						CHANNELS 3 Zrotation Xrotation Yrotation
						End Site
						{
							OFFSET	 0.000000	-0.001747	 0.077940
						}
					}
				}
				JOINT RightShoulder
				{
					OFFSET	-0.080363	 0.000306	 0.159706
					CHANNELS 3 Zrotation Xrotation Yrotation
					JOINT RightArm
					{
						OFFSET	 0.000000	 0.000000	 0.164196
						CHANNELS 3 Zrotation Xrotation Yrotation
						JOINT RightForeArm
						{
							OFFSET	 0.000000	 0.000000	 0.365611
							CHANNELS 3 Zrotation Xrotation Yrotation
							JOINT RightHand
							{
								OFFSET	 0.000000	 0.000000	 0.360648
								CHANNELS 3 Zrotation Xrotation Yrotation
								JOINT RightHandIndex1
								{
									OFFSET	 0.000000	 0.000000	 0.069977
									CHANNELS 3 Zrotation Xrotation Yrotation
									JOINT RightHandIndex2
									{
										OFFSET	 0.000000	 0.000000	 0.052305
										CHANNELS 3 Zrotation Xrotation Yrotation
										JOINT RightHandIndex3
										{
											OFFSET	 0.009002	-0.000782	 0.042196
											CHANNELS 3 Zrotation Xrotation Yrotation
											End Site
											{
												OFFSET	 0.009002	-0.000782	 0.042196
											}
										}
									}
								}
							}
						}
					}
				}
			}
		}
	}
}
MOTION
Frames:    12
Frame Time: 0.03333334
-0.000025	 0.043191	 1.278157	-0.070852	 2.789011	 0.525945	-12.043190	-5.463498	 179.668000	 2.207816	-12.206130	 0.555239	 0.334772	 70.786350	-0.491082	-2.385833	 28.452750	 0.000004	 19.567050	-4.865865	-179.749300	-0.799998	-10.303950	 0.778866	 4.944402	 69.549720	 1.399205	 2.384659	 28.388700	-0.000001	-3.106823	 7.110695	 0.882096	-1.548453	-6.000278	-0.257591	 4.958593	 9.156975	-0.315088	-91.093180	 69.270100	-177.652900	-7.447627	 0.815397	-3.288033	 23.397710	-8.630668	-33.259770	-9.174390	-29.216700	-4.750748	-2.027600	 6.559038	 9.033609	-5.188889	 0.308190	 3.541030	-5.234859	 0.342567	 0.430617	 4.530304	 19.139800	-7.115640	-0.043603	-13.868250	 2.079798	 88.910480	 67.971230	 177.157300	 9.371026	 6.137923	 5.532533	-25.992100	-9.819432	 27.223760	 6.805300	-28.998750	 6.618924	 1.803333	 3.979147	-15.098590	 4.898592	 3.004813	-9.310344	 5.224449	 0.395017	 2.014677
-0.000138	 0.043916	 1.278960	-0.058006	 3.047879	 0.525493	-12.079170	-5.528504	 179.594100	 2.149380	-11.704540	 0.520872	 0.170993	 70.421680	-0.255874	-2.385833	 28.452750	 0.000004	 19.556340	-4.849730	-179.620900	-0.798585	-9.658530	 0.730800	 4.992028	 69.135250	 1.329209	 2.384659	 28.388700	-0.000001	-3.146533	 7.341208	 0.930991	-1.596112	-6.856309	-0.328197	 5.047714	 10.195640	-0.367907	-91.024310	 68.817920	-177.502800	-7.230515	 0.425053	-3.758569	 23.219860	-8.594326	-33.527950	-8.577773	-29.898250	-4.901629	-2.027600	 6.559038	 9.033609	-5.188889	 0.308190	 3.541030	-5.234859	 0.342567	 0.430617	 4.680313	 20.320320	-7.495790	 0.073315	-14.658400	 2.080335	 88.816450	 67.349790	 176.977500	 9.181149	 5.611308	 6.113607	-26.035830	-9.911621	 27.380300	 6.074686	-29.468040	 6.409443	 1.803333	 3.979147	-15.098590	 4.898592	 3.004813	-9.310344	 5.224449	 0.395017	 2.014677
-0.000789	 0.047300	 1.281136	 0.039350	 4.193887	 0.572485	-12.321190	-6.346570	 179.190400	 2.104694	-10.575620	 0.470747	-0.808400	 69.624520	 0.811193	-2.385833	 28.452750	 0.000004	 19.438050	-5.219208	-179.149400	-0.817627	-7.663149	 0.578301	 5.331541	 67.749230	 0.926975	 2.384659	 28.388700	-0.000001	-3.059235	 7.975074	 1.063500	-1.700649	-9.764407	-0.632431	 5.047434	 13.236830	-0.458685	-90.873990	 67.771800	-177.210300	-6.709107	 0.144897	-4.823495	 22.470060	-8.429795	-34.685940	-7.350838	-32.833370	-5.823172	-2.027600	 6.559038	 9.033609	-5.188889	 0.308190	 3.541030	-5.234859	 0.342567	 0.430617	 4.738966	 23.504310	-8.417130	 0.563121	-17.070190	 2.169615	 88.529880	 65.345530	 176.503200	 8.434825	 4.370664	 7.603873	-25.798300	-10.075860	 28.092980	 3.926400	-31.529550	 5.985281	 1.803333	 3.979147	-15.098590	 4.898592	 3.004813	-9.310344	 5.224449	 0.395017	 2.014677
-0.001470	 0.051869	 1.283347	 0.157036	 5.615068	 0.660110	-12.517060	-7.399259	 178.657200	 2.120718	-9.222414	 0.406900	-1.950208	 68.675220	 2.083282	-2.385832	 28.452790	-0.000001	 19.180360	-5.270096	-178.554200	-1.122244	-4.288325	 0.301389	 5.854518	 65.654870	 0.620874	 2.384659	 28.388700	-0.000001	-2.897156	 8.463775	 1.124727	-1.846596	-12.834750	-0.899693	 4.921768	 16.133540	-0.586962	-90.830220	 66.415660	-177.299900	-5.811007	 0.176988	-5.400659	 20.980680	-7.744781	-36.099420	-7.335251	-35.902960	-7.314513	-2.027600	 6.559038	 9.033609	-5.188889	 0.308190	 3.541030	-5.234859	 0.342567	 0.430617	 4.498049	 25.622980	-8.786109	 0.939377	-18.781740	 2.102679	 88.401450	 63.177000	 176.509300	 7.120298	 3.420355	 8.510757	-25.073840	-9.994880	 28.946060	 2.132542	-33.689670	 6.102716	 1.803333	 3.979147	-15.098590	 4.898592	 3.004813	-9.310344	 5.224449	 0.395017	 2.014677
-0.001971	 0.057670	 1.284882	 0.349901	 7.281541	 0.732518	-12.842060	-8.986809	 178.040700	 2.058908	-8.285946	 0.356965	-3.129093	 67.759200	 3.451655	-2.385832	 28.452790	-0.000001	 18.795150	-5.428583	-177.841000	-1.451168	-0.512946	 0.033132	 6.526527	 63.327420	 0.198916	 2.384659	 28.388700	-0.000001	-2.731048	 8.635719	 1.118360	-2.010947	-15.909840	-1.116558	 4.703691	 18.666510	-0.666696	-91.070820	 65.287960	-178.099900	-4.538696	 1.055733	-4.964669	 19.480290	-6.968372	-37.545580	-8.121620	-38.729610	-9.102945	-2.027600	 6.559038	 9.033609	-5.188889	 0.308190	 3.541030	-5.234859	 0.342567	 0.430617	 4.072775	 26.704750	-8.805576	 1.193503	-19.838410	 1.984321	 88.594930	 61.542160	 177.181000	 5.204556	 3.554386	 8.354588	-24.261350	-9.824653	 29.770400	 0.693670	-35.921390	 6.509672	 1.803333	 3.979147	-15.098590	 4.898592	 3.004813	-9.310344	 5.224449	 0.395017	 2.014677
-0.002209	 0.064969	 1.285397	 0.645340	 9.248965	 0.749052	-13.298450	-11.469790	 177.354500	 1.970059	-8.336074	 0.346208	-4.344922	 67.083470	 4.924419	-2.385833	 28.452760	 0.000004	 18.392310	-7.787042	-177.129300	-1.648124	-0.513324	 0.031380	 7.966245	 62.827640	-1.217095	 2.384659	 28.388700	-0.000001	-2.601027	 8.360131	 1.067297	-2.143956	-18.827360	-1.278381	 4.414841	 20.746720	-0.631940	-91.698170	 64.768380	-179.794900	-2.968698	 3.105370	-3.283597	 18.496500	-6.513515	-38.957580	-9.159411	-41.329380	-10.975610	-2.027600	 6.559038	 9.033609	-5.188889	 0.308190	 3.541030	-5.234859	 0.342567	 0.430617	 3.592725	 26.905130	-8.744681	 1.371218	-20.390070	 1.893132	 89.179200	 60.800670	 178.604700	 2.724183	 5.192627	 7.059694	-23.609370	-9.684655	 30.468540	-0.502916	-38.385270	 6.959382	 1.803333	 3.979147	-15.098590	 4.898592	 3.004813	-9.310344	 5.224449	 0.395017	 2.014677
-0.002433	 0.073763	 1.285115	 0.854381	 11.499180	 0.684569	-13.683770	-14.702490	 176.642300	 1.979348	-9.129357	 0.380357	-5.905224	 66.868100	 6.690427	-2.385832	 28.452790	-0.000001	 18.128100	-10.511030	-176.215800	-1.847564	-0.510708	 0.029439	 9.520454	 62.340430	-2.770334	 2.384659	 28.388700	-0.000001	-2.432210	 7.841276	 1.090511	-2.189673	-21.087220	-1.455677	 4.116838	 22.153020	-0.325704	-92.497070	 65.071600	 178.078100	-1.537464	 6.191739	-0.993609	 18.487500	-6.912021	-40.654780	-9.449735	-43.964050	-12.092110	-2.027600	 6.559038	 9.033609	-5.188889	 0.308190	 3.541030	-5.234859	 0.342567	 0.430617	 3.169769	 25.466360	-8.996162	 1.436199	-20.013050	 1.693114	 89.970660	 60.341000	-179.570300	 0.364270	 7.592972	 5.203455	-22.491700	-9.387231	 31.615860	-0.784286	-41.282790	 7.450248	 1.803333	 3.979147	-15.098590	 4.898592	 3.004813	-9.310344	 5.224449	 0.395017	 2.014677
-0.003423	 0.086603	 1.284872	 1.743256	 14.974120	 0.730416	-14.922340	-19.304840	 175.151400	 2.485494	-9.648051	 0.486775	-8.446399	 66.028770	 9.057842	-2.385833	 28.452760	 0.000004	 17.132150	-14.761900	-175.226900	-1.599950	-0.513800	 0.031843	 10.529930	 61.113990	-4.280191	 2.384659	 28.388700	-0.000001	-2.480770	 6.775844	 0.989692	-2.552505	-22.559240	-1.685590	 3.652541	 22.387130	-0.257534	-93.240830	 65.252740	 176.062400	 0.985945	 9.831246	 0.635170	 18.371360	-7.318853	-42.696170	-9.689369	-46.278270	-13.106530	-2.027600	 6.559038	 9.033609	-5.188889	 0.308190	 3.541030	-5.234859	 0.342567	 0.430617	 2.811076	 24.656920	-8.680739	 1.415578	-20.115400	 1.462711	 90.805380	 60.457910	-177.658600	-2.434233	 10.969210	 3.935729	-21.443150	-9.088836	 32.762370	-0.720223	-43.948430	 8.269368	 1.803333	 3.979147	-15.098590	 4.898592	 3.004813	-9.310344	 5.224449	 0.395017	 2.014677
-0.004871	 0.101250	 1.284272	 2.920577	 18.651630	 0.637189	-16.531930	-23.793840	 173.438700	 3.097383	-9.314458	 0.569433	-10.655180	 63.769760	 11.062420	-2.385833	 28.452760	 0.000004	 15.865630	-19.315640	-174.267000	-1.634915	-0.513188	 0.031490	 11.520560	 59.330840	-5.538686	 2.384659	 28.388700	-0.000001	-2.609766	 6.061773	 0.900503	-3.009748	-23.146670	-1.718039	 3.175063	 22.011610	-0.433201	-93.870930	 65.590890	 174.276400	 4.127633	 14.037360	 0.136100	 18.381300	-7.591142	-43.697980	-10.144310	-48.632920	-14.180640	-2.027600	 6.559038	 9.033609	-5.188889	 0.308190	 3.541030	-5.234859	 0.342567	 0.430617	 2.487242	 24.121990	-7.887718	 1.277289	-20.464200	 1.046065	 91.586460	 60.940250	-175.805400	-5.243943	 15.057560	 4.422277	-20.823540	-8.756330	 33.043110	-0.389172	-46.424060	 9.206903	 1.803333	 3.979147	-15.098590	 4.898592	 3.004813	-9.310344	 5.224449	 0.395017	 2.014677
-0.006861	 0.115392	 1.282469	 4.059201	 21.766210	 0.368092	-18.129730	-28.010000	 171.877500	 3.580484	-9.840743	 0.684210	-12.774850	 63.561260	 12.978310	-2.385833	 28.452750	 0.000004	 14.956360	-25.457070	-173.558500	-2.046816	-5.237265	 0.283192	 14.173590	 60.955940	-8.224056	 2.384659	 28.388700	-0.000001	-2.703213	 6.331398	 0.881318	-3.396267	-22.899110	-1.476327	 2.800718	 21.486380	-0.810864	-94.341640	 66.322140	 172.721600	 7.186298	 17.928430	-2.864985	 18.633870	-7.701484	-43.192900	-10.881760	-51.146430	-15.370680	-2.027600	 6.559038	 9.033609	-5.188889	 0.308190	 3.541030	-5.234859	 0.342567	 0.430617	 2.144453	 23.622840	-6.828654	 1.061007	-20.914180	 0.468459	 92.254160	 61.646740	-174.111200	-7.711381	 19.101900	 6.848112	-20.578980	-8.465908	 32.675500	 0.388805	-48.828830	 10.286580	 1.803333	 3.979147	-15.098590	 4.898592	 3.004813	-9.310344	 5.224449	 0.395017	 2.014677
-0.009208	 0.125526	 1.278811	 4.411448	 22.917190	 0.177317	-18.885180	-31.521090	 171.101600	 3.627179	-13.962500	 0.977226	-14.481270	 65.298300	 14.914570	-2.385833	 28.452750	 0.000004	 14.984760	-30.253850	-173.268600	-2.013106	-12.245840	 0.665197	 16.838170	 63.874110	-11.344820	 2.384659	 28.388700	-0.000001	-2.493679	 8.771548	 0.965262	-3.290924	-20.681320	-0.730340	 2.777391	 20.995360	-1.336023	-94.553720	 67.887980	 171.359400	 9.606162	 20.646400	-8.015267	 18.950000	-7.953077	-42.999720	-11.664280	-53.724160	-16.508490	-2.027600	 6.559038	 9.033609	-5.188889	 0.308190	 3.541030	-5.234859	 0.342567	 0.430617	 1.648100	 22.867090	-6.179167	 0.988825	-21.285040	 0.111958	 92.702070	 62.377030	-172.854900	-9.329657	 22.445370	 11.188240	-20.104170	-8.396535	 33.475000	 2.552104	-51.473490	 11.953380	 1.803333	 3.979147	-15.098590	 4.898592	 3.004813	-9.310344	 5.224449	 0.395017	 2.014677
-0.011373	 0.139651	 1.274111	 3.737491	 24.595890	 0.065925	-18.582650	-35.712350	 170.468700	 3.702604	-18.035680	 1.277314	-16.305290	 66.687770	 17.064200	-2.385833	 28.452750	 0.000004	 16.205370	-34.775100	-172.174100	-2.470038	-17.207290	 0.792240	 20.447300	 65.686040	-14.945310	 2.384659	 28.388700	-0.000001	-2.088404	 11.212600	 0.959738	-2.511549	-16.439120	 0.483923	 2.887551	 19.480930	-1.623941	-94.498630	 70.187290	 169.929000	 11.524270	 22.346200	-14.752530	 18.811660	-7.868143	-43.173810	-13.695280	-57.024320	-18.180490	-2.027600	 6.559038	 9.033609	-5.188889	 0.308190	 3.541030	-5.234859	 0.342567	 0.430617	 1.129836	 21.607810	-5.981369	 1.014514	-21.385100	 0.032384	 93.050960	 64.121960	-171.403500	-11.369220	 26.068690	 18.413740	-19.415950	-7.969728	 33.653500	 6.289994	-54.576110	 14.463090	 1.803333	 3.979147	-15.098590	 4.898592	 3.004813	-9.310344	 5.224449	 0.395017	 2.014677
